<svg width="36" height="36" viewBox="0 0 36 36" fill="none" xmlns="http://www.w3.org/2000/svg">
<path d="M16.4998 6H5.99976C5.20411 6 4.44104 6.31607 3.87844 6.87868C3.31583 7.44129 2.99976 8.20435 2.99976 9V30C2.99976 30.7956 3.31583 31.5587 3.87844 32.1213C4.44104 32.6839 5.20411 33 5.99976 33H26.9998C27.7954 33 28.5585 32.6839 29.1211 32.1213C29.6837 31.5587 29.9998 30.7956 29.9998 30V19.5" stroke="#6478A0" stroke-width="3" stroke-linecap="round" stroke-linejoin="round"/>
<path d="M27.7498 3.75034C28.3465 3.1536 29.1558 2.81836 29.9998 2.81836C30.8437 2.81836 31.653 3.1536 32.2498 3.75034C32.8465 4.34708 33.1817 5.15643 33.1817 6.00034C33.1817 6.84425 32.8465 7.6536 32.2498 8.25034L17.9998 22.5003L11.9998 24.0003L13.4998 18.0003L27.7498 3.75034Z" stroke="#6478A0" stroke-width="3" stroke-linecap="round" stroke-linejoin="round"/>
</svg>
