<svg width="32" height="32" viewBox="0 0 32 32" fill="none" xmlns="http://www.w3.org/2000/svg">
<path d="M14.6664 5.33344H5.33311C4.62587 5.33344 3.94759 5.61439 3.44749 6.11448C2.94739 6.61458 2.66644 7.29286 2.66644 8.0001V26.6668C2.66644 27.374 2.94739 28.0523 3.44749 28.5524C3.94759 29.0525 4.62587 29.3334 5.33311 29.3334H23.9998C24.707 29.3334 25.3853 29.0525 25.8854 28.5524C26.3855 28.0523 26.6664 27.374 26.6664 26.6668V17.3334" stroke="#7F96C2" stroke-width="2.66667" stroke-linecap="round" stroke-linejoin="round"/>
<path d="M24.6664 3.33355C25.1969 2.80312 25.9163 2.50513 26.6664 2.50513C27.4166 2.50513 28.136 2.80312 28.6664 3.33355C29.1969 3.86399 29.4949 4.58341 29.4949 5.33355C29.4949 6.0837 29.1969 6.80312 28.6664 7.33355L15.9998 20.0002L10.6664 21.3336L11.9998 16.0002L24.6664 3.33355Z" stroke="#7F96C2" stroke-width="2.66667" stroke-linecap="round" stroke-linejoin="round"/>
</svg>
